<?xml version="1.0"?>
<svg xmlns:rdf="http://www.w3.org/1999/02/22-rdf-syntax-ns#" xmlns="http://www.w3.org/2000/svg" xmlns:cc="http://creativecommons.org/ns#" xmlns:dc="http://purl.org/dc/elements/1.1/" xmlns:svg="http://www.w3.org/2000/svg" id="svg2774" viewBox="0 0 107.95 87.434" version="1.0">
  <g id="layer1" transform="translate(-40.31 -17.217)">
    <path id="path13431" stroke-linejoin="round" d="m109.18 20.294c-9.764 0-18.127 5.089-22.23 12.4-1.638-0.915-3.463-1.475-5.392-1.475-5.833 0-10.686 4.692-12.186 11.062-2.561-1.012-5.516-1.638-8.697-1.638-9.541 0-17.288 5.227-17.288 11.663 0 5.809 6.346 10.588 14.592 11.471-0.37 0.627-0.661 1.254-0.661 1.912 0 6.162 16.889 11.172 37.695 11.172 20.807 0 37.697-5.01 37.697-11.172 0-0.414-0.28-0.799-0.43-1.201 0.92 0.226 1.83 0.464 2.83 0.464 5.57 0 10.07-3.784 10.07-8.44s-4.5-8.413-10.07-8.413c-0.68 0-1.28 0.22-1.93 0.328 0.57-1.862 0.95-3.77 0.95-5.791 0-12.323-11.17-22.342-24.95-22.342z" stroke="#6798e9" stroke-linecap="round" stroke-miterlimit=".5" stroke-width="6.154" fill="#fff"/>
    <path id="path13472" d="m96.661 89.185c1.709-1.551 3.679-3.458 6.799-3.266 3.27-0.003 4.84 0.342 8.03 1.337 3.2 0.995 6.45 2.654 8.89 2.058 2.55-0.621 5.35-2.953 6.47-4.383 1.64 0.5-0.45 2.592-0.94 3.473-1.53 2.295-2.92 3.85-5.15 4.502-2.44 0.829-5.34 0.477-7.76-0.032-2.74-0.649-5.41-1.78-8.13-2.511-3.02-0.645-7.376 0.881-8.551 1.434-1.22 0.573-3.618 3.166-3.166 1.078 1.162-1.097 1.777-2.118 3.508-3.69z" stroke="#9e9e9e" stroke-width="1px" fill="#9e9e9e"/>
    <path id="path13501" d="m61.275 88.021c1.708-1.551 3.679-3.458 6.797-3.266 3.271-0.003 4.84 0.342 8.036 1.337 3.196 0.996 6.448 2.654 8.888 2.058 2.543-0.621 5.347-2.952 6.468-4.383 1.642 0.5-0.447 2.592-0.937 3.473-1.53 2.295-2.925 3.85-5.158 4.502-2.44 0.829-5.333 0.477-7.756-0.032-2.738-0.649-5.405-1.78-8.129-2.511-3.02-0.645-7.376 0.882-8.551 1.434-1.221 0.573-3.619 3.166-3.167 1.078 1.163-1.097 1.777-2.118 3.509-3.69z" stroke="#9e9e9e" stroke-width="1px" fill="#9e9e9e"/>
    <path id="path13505" d="m76.137 99.66c1.708-1.551 3.679-3.458 6.797-3.266 3.271-0.002 4.841 0.343 8.037 1.338s6.447 2.648 8.888 2.057c2.541-0.62 5.351-2.952 6.471-4.383 1.64 0.501-0.45 2.593-0.94 3.474-1.53 2.29-2.93 3.85-5.16 4.5-2.439 0.83-5.332 0.48-7.755-0.03-2.737-0.65-5.404-1.78-8.128-2.51-3.021-0.65-7.377 0.88-8.552 1.43-1.22 0.58-3.618 3.17-3.167 1.08 1.163-1.1 1.777-2.12 3.509-3.69z" stroke="#9e9e9e" stroke-width="1px" fill="#9e9e9e"/>
  </g>
  <metadata>
    <rdf:RDF>
      <cc:Work>
        <dc:format>image/svg+xml</dc:format>
        <dc:type rdf:resource="http://purl.org/dc/dcmitype/StillImage"/>
        <cc:license rdf:resource="http://creativecommons.org/licenses/publicdomain/"/>
        <dc:publisher>
          <cc:Agent rdf:about="http://openclipart.org/">
            <dc:title>Openclipart</dc:title>
          </cc:Agent>
        </dc:publisher>
        <dc:title>simple weather symbols</dc:title>
        <dc:date>2008-02-08T23:54:06</dc:date>
        <dc:description>clip art, clipart, clouds, clouds, icon, icon, image, media, png, public domain, rain, rain, snow, snow, sun, sun, svg, symbol, symbol, weather, weather, </dc:description>
        <dc:source>http://openclipart.org/detail/14715/simple-weather-symbols-by-anonymous-14715</dc:source>
        <dc:creator>
          <cc:Agent>
            <dc:title>Anonymous</dc:title>
          </cc:Agent>
        </dc:creator>
        <dc:subject>
          <rdf:Bag>
            <rdf:li>clip art</rdf:li>
            <rdf:li>clipart</rdf:li>
            <rdf:li>clouds</rdf:li>
            <rdf:li>icon</rdf:li>
            <rdf:li>image</rdf:li>
            <rdf:li>media</rdf:li>
            <rdf:li>png</rdf:li>
            <rdf:li>public domain</rdf:li>
            <rdf:li>rain</rdf:li>
            <rdf:li>snow</rdf:li>
            <rdf:li>sun</rdf:li>
            <rdf:li>svg</rdf:li>
            <rdf:li>symbol</rdf:li>
            <rdf:li>weather</rdf:li>
          </rdf:Bag>
        </dc:subject>
      </cc:Work>
      <cc:License rdf:about="http://creativecommons.org/licenses/publicdomain/">
        <cc:permits rdf:resource="http://creativecommons.org/ns#Reproduction"/>
        <cc:permits rdf:resource="http://creativecommons.org/ns#Distribution"/>
        <cc:permits rdf:resource="http://creativecommons.org/ns#DerivativeWorks"/>
      </cc:License>
    </rdf:RDF>
  </metadata>
</svg>
